<?xml version="1.0" standalone="no"?>
<!DOCTYPE svg PUBLIC "-//W3C//DTD SVG 20010904//EN"
 "http://www.w3.org/TR/2001/REC-SVG-20010904/DTD/svg10.dtd">
<svg version="1.0" xmlns="http://www.w3.org/2000/svg"
 width="1200.000000pt" height="1200.000000pt" viewBox="0 0 1200.000000 1200.000000"
 preserveAspectRatio="xMidYMid meet">
<metadata>
Created by potrace 1.11, written by Peter Selinger 2001-2013
</metadata>
<g transform="translate(0.000000,1200.000000) scale(0.100000,-0.100000)"
fill="#000000" stroke="none">
<path d="M5275 10606 c-104 -62 -341 -200 -525 -306 -184 -106 -340 -201 -347
-209 -9 -12 -12 -127 -13 -461 l0 -445 -508 -294 c-279 -162 -517 -303 -529
-314 l-23 -20 0 -1373 0 -1373 93 -54 c184 -108 1578 -914 1807 -1045 129 -74
473 -272 765 -441 291 -168 539 -306 550 -306 12 0 260 139 553 309 l532 310
0 452 0 452 513 297 c281 164 520 305 530 313 16 14 17 92 17 1381 -1 1069 -3
1370 -13 1382 -12 16 -493 297 -1612 942 -286 164 -757 436 -1047 603 -290
167 -533 306 -540 308 -7 2 -98 -46 -203 -108z m3085 -4641 c0 -2 -10 -9 -22
-15 -22 -11 -22 -10 -4 4 21 17 26 19 26 11z m-310 -180 c0 -2 -10 -9 -22 -15
-22 -11 -22 -10 -4 4 21 17 26 19 26 11z m-3560 -591 c0 -2 -9 0 -20 6 -11 6
-20 13 -20 16 0 2 9 0 20 -6 11 -6 20 -13 20 -16z m190 -110 c0 -2 -9 0 -20 6
-11 6 -20 13 -20 16 0 2 9 0 20 -6 11 -6 20 -13 20 -16z m2880 -489 c0 -2 -10
-9 -22 -15 -22 -11 -22 -10 -4 4 21 17 26 19 26 11z"/>
<path d="M5240 3129 c-104 -42 -152 -143 -152 -319 1 -202 77 -310 225 -318
127 -8 214 52 237 162 30 145 -53 256 -191 256 -52 0 -110 -24 -132 -54 -12
-15 3 84 15 109 23 45 51 65 89 65 31 0 43 -6 61 -31 22 -30 24 -30 83 -24 33
4 61 9 63 10 6 5 -29 79 -46 98 -34 38 -88 57 -159 56 -37 0 -79 -5 -93 -10z
m125 -329 c34 -13 59 -71 50 -119 -9 -50 -41 -81 -82 -81 -47 0 -72 16 -89 55
-22 55 -18 93 15 126 31 30 61 36 106 19z"/>
<path d="M5920 3129 c-104 -42 -152 -143 -152 -319 1 -202 77 -310 225 -318
127 -8 214 52 237 162 30 145 -53 256 -191 256 -52 0 -110 -24 -132 -54 -12
-15 3 84 15 109 23 45 51 65 89 65 31 0 43 -6 61 -31 22 -30 24 -30 83 -24 33
4 61 9 63 10 6 5 -29 79 -46 98 -34 38 -88 57 -159 56 -37 0 -79 -5 -93 -10z
m125 -329 c34 -13 59 -71 50 -119 -9 -50 -41 -81 -82 -81 -47 0 -72 16 -89 55
-22 55 -18 93 15 126 31 30 61 36 106 19z"/>
<path d="M6450 3075 l0 -55 160 -2 159 -3 -42 -55 c-96 -127 -165 -281 -181
-407 l-7 -53 76 0 75 0 0 38 c0 104 55 244 161 408 50 78 59 98 59 137 l0 47
-230 0 -230 0 0 -55z"/>
</g>
</svg>
